<svg xmlns="http://www.w3.org/2000/svg" style="display: none;"><symbol id="back" viewBox="0 0 240.823 240.823"><title>back</title><path id="Chevron_Right" d="M57.633,129.007L165.93,237.268c4.752,4.74,12.451,4.74,17.215,0c4.752-4.74,4.752-12.439,0-17.179 l-99.707-99.671l99.695-99.671c4.752-4.74,4.752-12.439,0-17.191c-4.752-4.74-12.463-4.74-17.215,0L57.621,111.816 C52.942,116.507,52.942,124.327,57.633,129.007z"/></symbol><symbol id="left-arrow" viewBox="0 0 512 512"><title>left-arrow</title><path d="M379.644,477.872l-207.299-207.73c-7.798-7.798-7.798-20.486,0.015-28.299L379.643,34.128 c7.803-7.819,7.789-20.482-0.029-28.284c-7.819-7.803-20.482-7.79-28.284,0.029L144.061,213.574 c-23.394,23.394-23.394,61.459-0.015,84.838L351.33,506.127c3.907,3.915,9.031,5.873,14.157,5.873 c5.111,0,10.224-1.948,14.128-5.844C387.433,498.354,387.446,485.691,379.644,477.872z"/></symbol><symbol id="left-arrow-1" viewBox="0 0 330 330"><title>left-arrow-1</title><path id="XMLID_223_" d="M111.213,165.004L250.607,25.607c5.858-5.858,5.858-15.355,0-21.213 c-5.858-5.858-15.355-5.858-21.213,0.001l-150,150.004C76.58,157.211,75,161.026,75,165.004c0,3.979,1.581,7.794,4.394,10.607 l150,149.996C232.322,328.536,236.161,330,240,330s7.678-1.464,10.607-4.394c5.858-5.858,5.858-15.355,0-21.213L111.213,165.004z"/></symbol><symbol id="star" viewBox="0 -10 511.98685 511"><title>star</title><path d="m510.652344 185.902344c-3.351563-10.367188-12.546875-17.730469-23.425782-18.710938l-147.773437-13.417968-58.433594-136.769532c-4.308593-10.023437-14.121093-16.511718-25.023437-16.511718s-20.714844 6.488281-25.023438 16.535156l-58.433594 136.746094-147.796874 13.417968c-10.859376 1.003906-20.03125 8.34375-23.402344 18.710938-3.371094 10.367187-.257813 21.738281 7.957031 28.90625l111.699219 97.960937-32.9375 145.089844c-2.410156 10.667969 1.730468 21.695313 10.582031 28.09375 4.757813 3.4375 10.324219 5.1875 15.9375 5.1875 4.839844 0 9.640625-1.304687 13.949219-3.882813l127.46875-76.183593 127.421875 76.183593c9.324219 5.609376 21.078125 5.097657 29.910156-1.304687 8.855469-6.417969 12.992187-17.449219 10.582031-28.09375l-32.9375-145.089844 111.699219-97.941406c8.214844-7.1875 11.351563-18.539063 7.980469-28.925781zm0 0" fill="#ffc107"/></symbol><symbol id="star-1" viewBox="0 -10 511.98685 511"><title>star-1</title><path d="m114.59375 491.140625c-5.609375 0-11.179688-1.75-15.933594-5.1875-8.855468-6.417969-12.992187-17.449219-10.582031-28.09375l32.9375-145.089844-111.703125-97.960937c-8.210938-7.167969-11.347656-18.519532-7.976562-28.90625 3.371093-10.367188 12.542968-17.707032 23.402343-18.710938l147.796875-13.417968 58.433594-136.746094c4.308594-10.046875 14.121094-16.535156 25.023438-16.535156 10.902343 0 20.714843 6.488281 25.023437 16.511718l58.433594 136.769532 147.773437 13.417968c10.882813.980469 20.054688 8.34375 23.425782 18.710938 3.371093 10.367187.253906 21.738281-7.957032 28.90625l-111.703125 97.941406 32.9375 145.085938c2.414063 10.667968-1.726562 21.699218-10.578125 28.097656-8.832031 6.398437-20.609375 6.890625-29.910156 1.300781l-127.445312-76.160156-127.445313 76.203125c-4.308594 2.558594-9.109375 3.863281-13.953125 3.863281zm141.398438-112.875c4.84375 0 9.640624 1.300781 13.953124 3.859375l120.277344 71.9375-31.085937-136.941406c-2.21875-9.746094 1.089843-19.921875 8.621093-26.515625l105.472657-92.5-139.542969-12.671875c-10.046875-.917969-18.6875-7.234375-22.613281-16.492188l-55.082031-129.046875-55.148438 129.066407c-3.882812 9.195312-12.523438 15.511718-22.546875 16.429687l-139.5625 12.671875 105.46875 92.5c7.554687 6.613281 10.859375 16.769531 8.621094 26.539062l-31.0625 136.9375 120.277343-71.914062c4.308594-2.558594 9.109376-3.859375 13.953126-3.859375zm-84.585938-221.847656s0 .023437-.023438.042969zm169.128906-.0625.023438.042969c0-.023438 0-.023438-.023438-.042969zm0 0"/></symbol><symbol id="star-2" viewBox="0 0 49.94 49.94"><title>star-2</title><path d="M48.856,22.731c0.983-0.958,1.33-2.364,0.906-3.671c-0.425-1.307-1.532-2.24-2.892-2.438l-12.092-1.757 c-0.515-0.075-0.96-0.398-1.19-0.865L28.182,3.043c-0.607-1.231-1.839-1.996-3.212-1.996c-1.372,0-2.604,0.765-3.211,1.996 L16.352,14c-0.23,0.467-0.676,0.79-1.191,0.865L3.069,16.623C1.71,16.82,0.603,17.753,0.178,19.06 c-0.424,1.307-0.077,2.713,0.906,3.671l8.749,8.528c0.373,0.364,0.544,0.888,0.456,1.4L8.224,44.702 c-0.232,1.353,0.313,2.694,1.424,3.502c1.11,0.809,2.555,0.914,3.772,0.273l10.814-5.686c0.461-0.242,1.011-0.242,1.472,0 l10.815,5.686c0.528,0.278,1.1,0.415,1.669,0.415c0.739,0,1.475-0.231,2.103-0.688c1.111-0.808,1.656-2.149,1.424-3.502 L39.651,32.66c-0.088-0.513,0.083-1.036,0.456-1.4L48.856,22.731z M37.681,32.998l2.065,12.042c0.104,0.606-0.131,1.185-0.629,1.547 c-0.499,0.361-1.12,0.405-1.665,0.121l-10.815-5.687c-0.521-0.273-1.095-0.411-1.667-0.411s-1.145,0.138-1.667,0.412l-10.813,5.686 c-0.547,0.284-1.168,0.24-1.666-0.121c-0.498-0.362-0.732-0.94-0.629-1.547l2.065-12.042c0.199-1.162-0.186-2.348-1.03-3.17 L2.48,21.299c-0.441-0.43-0.591-1.036-0.4-1.621c0.19-0.586,0.667-0.988,1.276-1.077l12.091-1.757 c1.167-0.169,2.176-0.901,2.697-1.959l5.407-10.957c0.272-0.552,0.803-0.881,1.418-0.881c0.616,0,1.146,0.329,1.419,0.881 l5.407,10.957c0.521,1.058,1.529,1.79,2.696,1.959l12.092,1.757c0.609,0.089,1.086,0.491,1.276,1.077 c0.19,0.585,0.041,1.191-0.4,1.621l-8.749,8.528C37.866,30.65,37.481,31.835,37.681,32.998z"/></symbol><symbol id="black-star-silhouette" viewBox="0 0 492.892 492.892"><title>black-star-silhouette</title><path d="M232.855,19.773c2.552-5.17,7.817-8.443,13.583-8.443c5.766-0.001,11.032,3.272,13.584,8.442l59.083,119.697 c5.556,11.255,16.294,19.058,28.716,20.862l132.1,19.203c5.706,0.83,10.446,4.826,12.229,10.31 c1.78,5.483,0.296,11.503-3.833,15.528l-95.581,93.181c-8.988,8.763-13.089,21.386-10.969,33.756l22.553,131.547 c0.974,5.683-1.362,11.426-6.027,14.812c-4.664,3.391-10.848,3.836-15.951,1.153l-118.156-62.106 c-11.11-5.84-24.383-5.84-35.495,0.002L110.546,479.82c-5.104,2.683-11.288,2.234-15.952-1.154c-4.665-3.389-7-9.133-6.026-14.814 l22.563-131.537c2.123-12.374-1.979-24.999-10.969-33.764L4.575,205.373c-4.128-4.025-5.615-10.045-3.833-15.528 c1.782-5.483,6.522-9.479,12.228-10.31l132.096-19.202c12.422-1.806,23.161-9.608,28.717-20.865L232.855,19.773z"/></symbol><symbol id="sunny" viewBox="0 0 512.46 512.46"><title>sunny</title><path d="m437.48 181.1v-106.04h-106.04l-75.21-74.83-75.21 74.83h-106.04v106.04l-74.98 74.98 74.98 74.98v106.04h106.04l75.21 75.13 75.21-75.13h106.04v-106.04l74.98-74.98zm-181.25 234.36c-87.8 0-159.23-71.43-159.23-159.23s71.43-159.23 159.23-159.23 159.23 71.43 159.23 159.23-71.43 159.23-159.23 159.23z"/><circle cx="256.23" cy="256.23" r="129.23"/></symbol><symbol id="moon" viewBox="-12 0 448 448.04455"><title>moon</title><path d="m224.023438 448.03125c85.714843.902344 164.011718-48.488281 200.117187-126.230469-22.722656 9.914063-47.332031 14.769531-72.117187 14.230469-97.15625-.109375-175.890626-78.84375-176-176 .972656-65.71875 37.234374-125.832031 94.910156-157.351562-15.554688-1.980469-31.230469-2.867188-46.910156-2.648438-123.714844 0-224.0000005 100.289062-224.0000005 224 0 123.714844 100.2851565 224 224.0000005 224zm0 0"/></symbol></svg>